<?xml version="1.0" standalone="no"?><!DOCTYPE svg PUBLIC "-//W3C//DTD SVG 1.1//EN" "http://www.w3.org/Graphics/SVG/1.1/DTD/svg11.dtd"><svg t="1542528924218" class="icon" style="" viewBox="0 0 1024 1024" version="1.1" xmlns="http://www.w3.org/2000/svg" p-id="6097" xmlns:xlink="http://www.w3.org/1999/xlink" width="200" height="200"><defs><style type="text/css"></style></defs><path d="M944 338.48H100a32 32 0 0 0-32 32v283.08a32 32 0 0 0 32 32h107.48v-105.04H158a8 8 0 0 1 0-16h708a8 8 0 0 1 0 16h-49.48v105.04H944a32 32 0 0 0 32-32V370.48a32 32 0 0 0-32-32zM342.04 408.72a8 8 0 0 1-8 8H273.52a8 8 0 0 1 0-16h60.52a8 8 0 0 1 8 8z m-121.04 0a38.28 38.28 0 0 1-38.24 38.24H122.24a38.24 38.24 0 0 1 0-76.52h60.52a38.32 38.32 0 0 1 38.28 38.28z" fill="#40BDFF" p-id="6098"></path><path d="M182.76 386.48H122.24a22.24 22.24 0 0 0 0 44.52h60.52a22.24 22.24 0 0 0 0-44.52z" fill="#EB5639" p-id="6099"></path><path d="M182.76 386.48h-12a22.24 22.24 0 0 1 0 44.52h12a22.24 22.24 0 0 0 0-44.52z" fill="#D84936" p-id="6100"></path><path d="M275.48 927.6h493.04a32 32 0 0 0 32-32v-315.08H243.48v315.08a32 32 0 0 0 32 32z m6.56-60.52h460a8 8 0 0 1 0 16h-460a8 8 0 0 1 0-16z m460-44.52h-460a8 8 0 0 1 0-16h460a8 8 0 0 1 0 16z m0-60.52h-460a8 8 0 0 1 0-16h460a8 8 0 0 1 0 16z m0-60.52h-460a8 8 0 0 1 0-16h460a8 8 0 0 1 0 16z m0-60.52h-460a8 8 0 0 1 0-16h460a8 8 0 0 1 0 16zM800.52 128.4a32 32 0 0 0-32-32H275.48a32 32 0 0 0-32 32v194.08h557.04z" fill="#EFFAFE" p-id="6101"></path><path d="M944 338.48h-20a32 32 0 0 1 32 32v283.08a32 32 0 0 1-32 32h20a32 32 0 0 0 32-32V370.48a32 32 0 0 0-32-32z" fill="#2197F7" p-id="6102"></path><path d="M780.52 580.52v315.08a32 32 0 0 1-32 32h20a32 32 0 0 0 32-32v-315.08zM768.52 96.4h-20a32 32 0 0 1 32 32v194.08h20V128.4a32 32 0 0 0-32-32z" fill="#E4EBED" p-id="6103"></path><path d="M944 320.48h-125.48v-192a50.04 50.04 0 0 0-50-50H255.48a50.04 50.04 0 0 0-50 50v192H80a50.04 50.04 0 0 0-50 50v283.08A50.04 50.04 0 0 0 80 703.52h125.48v192a50.04 50.04 0 0 0 50 50h513.04a50.04 50.04 0 0 0 50-50v-192H944a50.04 50.04 0 0 0 50-50V370.48a50.04 50.04 0 0 0-50-50zM225.48 128.4a30.04 30.04 0 0 1 30-30h513.04a30.04 30.04 0 0 1 30 30v192H225.48z m573.04 565.12v202.08a30.04 30.04 0 0 1-30 30H255.48a30.04 30.04 0 0 1-30-30v-313.08h573.04z m175.48-40a30.04 30.04 0 0 1-30 30h-125.48v-101h47.48a10 10 0 0 0 0-20h-708a10 10 0 0 0 0 20h47.48v101.04H80a30.04 30.04 0 0 1-30-30V370.48a30.04 30.04 0 0 1 30-30h864a30.04 30.04 0 0 1 30 30z" fill="#263238" p-id="6104"></path><path d="M182.76 368.48H122.24a40.24 40.24 0 0 0 0 80.52h60.52a40.24 40.24 0 0 0 0-80.52z m0 60.52H122.24a20.24 20.24 0 0 1 0-40.52h60.52a20.24 20.24 0 0 1 0 40.52zM334.04 398.72H273.52a10 10 0 0 0 0 20h60.52a10 10 0 0 0 0-20zM282.04 643.04h460a10 10 0 0 0 0-20h-460a10 10 0 0 0 0 20zM282.04 703.52h460a10 10 0 0 0 0-20h-460a10 10 0 0 0 0 20zM282.04 764h460a10 10 0 0 0 0-20h-460a10 10 0 0 0 0 20zM282.04 824.56h460a10 10 0 0 0 0-20h-460a10 10 0 0 0 0 20zM282.04 885.08h460a10 10 0 0 0 0-20h-460a10 10 0 0 0 0 20z" fill="#263238" p-id="6105"></path><path d="M92 784h-16v-16a4 4 0 0 0-8 0v16h-16a4 4 0 0 0 0 8h16v16a4 4 0 0 0 8 0v-16h16a4 4 0 0 0 0-8zM932 753h-16v-16a4 4 0 0 0-8 0v16h-16a4 4 0 0 0 0 8h16v16a4 4 0 0 0 8 0v-16h16a4 4 0 0 0 0-8z" fill="#FFDD00" p-id="6106"></path><path d="M105.28 112h-16v-16a4 4 0 0 0-8 0v16h-16a4 4 0 0 0 0 8h16v16a4 4 0 0 0 8 0v-16h16a4 4 0 0 0 0-8zM880 126.4a24 24 0 1 1 24-24 24 24 0 0 1-24 24z m0-40a16 16 0 1 0 16 16 16 16 0 0 0-16-16zM152.52 964a24 24 0 1 1 24-24 24 24 0 0 1-24 24z m0-40a16 16 0 1 0 16 16 16 16 0 0 0-16-16z" fill="#40BDFF" p-id="6107"></path><path d="M910.88 291a24 24 0 1 1 24-24 24 24 0 0 1-24 24z m0-40a16 16 0 1 0 16 16 16 16 0 0 0-16-16z" fill="#FFDD00" p-id="6108"></path><path d="M913.32 914h-10.36l7.32-7.32a4 4 0 0 0-5.64-5.64l-7.32 7.32v-10.36a4 4 0 0 0-8 0v10.36l-7.32-7.32a4 4 0 0 0-5.64 5.64l7.32 7.32h-10.36a4 4 0 0 0 0 8h10.36l-7.32 7.32a4 4 0 0 0 5.64 5.64l7.32-7.32v10.36a4 4 0 0 0 8 0v-10.36l7.32 7.32a4 4 0 0 0 5.64-5.64l-7.32-7.32h10.36a4 4 0 0 0 0-8z" fill="#40BDFF" p-id="6109"></path></svg>